<svg aria-hidden="true" style="position:absolute;width:0;height:0;overflow:hidden" xmlns="http://www.w3.org/2000/svg">
  <defs>
    <symbol id="logo" viewBox="0 0 107 32">
      <path fill="#ff6b0a" style="fill:var(--color1, #ff6b0a)" d="M106.667 0v32H59.536V0h47.131zM74.42 8.811v13.927l.001.044a.842.842 0 0 1-.001.087c-.007.08.015.128.107.115a.485.485 0 0 1 .066-.001l.033.001h3.582c.075.001.112.001.129-.017s.016-.051.014-.116l-.001-.078V8.83l-.001-.033a.485.485 0 0 1 .001-.066c.008-.082-.02-.125-.109-.115-.018.002-.036.001-.054.001l-.028-.001h-3.55l-.062-.001c-.065-.001-.098-.001-.114.015s-.016.049-.015.116l.001.064zm19.579-.194h-5.863c-1.954 0-3.908 0-5.86-.002h-.133c-.066-.003-.089.028-.084.089a.486.486 0 0 1 0 .054v3.398c0 .072-.001.107.017.124s.051.017.118.016H85.923c.12 0 .18 0 .209.03s.029.087.029.2v10.335c-.001.059-.001.09.014.106.017.018.052.017.127.017h3.571c.111 0 .166 0 .193-.028s.027-.08.027-.186V12.488l-.001-.059c-.001-.063-.001-.097.015-.114.018-.019.055-.018.133-.018h3.798c.162 0 .162 0 .164-.159V8.759c.001-.072.001-.108-.016-.126s-.053-.017-.123-.016L94 8.618z"/>
      <path fill="#010101" style="fill:var(--color2, #010101)" d="m47.132 0 12.403 16-12.403 16H0V0h47.132zm-26.38 13.662.215.174a.371.371 0 0 0 .106-.107.256.256 0 0 1 .02-.026c.254-.302.507-.606.76-.91.507-.606 1.012-1.212 1.518-1.82.101-.122.097-.177-.018-.276a12.617 12.617 0 0 0-.277-.233c-.803-.657-1.685-1.17-2.684-1.467a9.43 9.43 0 0 0-2.043-.353c-.905-.061-1.802-.031-2.691.174-3.112.716-5.434 3.292-5.707 6.594a7.795 7.795 0 0 0 .225 2.638c.519 1.96 1.645 3.461 3.434 4.45.975.539 2.03.823 3.14.912.94.076 1.87.018 2.788-.189 1.553-.35 2.925-1.056 4.146-2.067a.333.333 0 0 0 .137-.289c-.004-1.572-.004-3.145-.003-4.717v-1.179a.66.66 0 0 0-.003-.062c-.003-.046-.006-.092.006-.134.015-.049-.012-.077-.037-.104-.021-.022-.042-.044-.039-.077.007-.054-.03-.062-.073-.062h-6.556l-.038.001c-.026.001-.052.002-.077-.001-.066-.007-.087.026-.083.087a.657.657 0 0 1 .001.077l-.001.038V17.839l-.001.074c-.001.063-.002.096.014.112s.052.017.125.016H19.772c.072-.001.107-.001.124.016.016.016.015.048.014.11l-.001.078v.679c0 .308 0 .311-.279.445-.818.391-1.681.503-2.573.391-.991-.123-1.784-.591-2.365-1.401-.378-.527-.585-1.122-.662-1.763-.097-.818.002-1.605.373-2.348.448-.892 1.125-1.533 2.098-1.827.682-.207 1.373-.153 2.056-.003.619.135 1.159.437 1.657.816.182.138.359.281.539.427zm18.346-2.98c-1.528-1.39-3.348-2.052-5.229-2.066-.869.002-1.518.072-2.207.251-1.998.521-3.563 1.638-4.602 3.422-1.067 1.83-1.283 3.793-.687 5.812.667 2.257 2.089 3.9 4.29 4.815 1.69.701 3.44.795 5.206.332 2.051-.537 3.624-1.725 4.654-3.578.869-1.562 1.102-3.238.778-4.987-.291-1.572-1.017-2.919-2.203-4zm-8.437 3.528c.666-1.227 1.729-1.815 2.762-1.838 2.094-.005 3.464 1.173 3.837 2.806.226.984.125 1.94-.358 2.834-.57 1.05-1.458 1.661-2.654 1.797-1.156.133-2.165-.194-2.99-1.025a3.579 3.579 0 0 1-.983-1.914c-.172-.928-.066-1.827.386-2.66z"/>
    </symbol>
    <symbol id="javascript" viewBox="0 0 32 32">
      <path fill="#f7df1e" style="fill:var(--color3, #f7df1e)" d="M0 0h32v32H0V0z"/>
      <path style="fill:var(--color4, #000)" d="m8.414 26.741 2.449-1.482c.473.838.902 1.546 1.933 1.546.988 0 1.611-.387 1.611-1.89V14.69h3.007v10.267c0 3.115-1.826 4.532-4.489 4.532-2.406 0-3.802-1.246-4.511-2.75zm10.634-.322 2.448-1.418c.645 1.053 1.482 1.826 2.964 1.826 1.246 0 2.041-.623 2.041-1.482 0-1.031-.816-1.396-2.191-1.997l-.752-.323c-2.17-.923-3.609-2.083-3.609-4.532 0-2.256 1.718-3.974 4.404-3.974 1.912 0 3.287.666 4.274 2.406l-2.341 1.504c-.516-.924-1.074-1.289-1.933-1.289-.881 0-1.439.558-1.439 1.289 0 .902.558 1.268 1.847 1.826l.752.322c2.556 1.096 3.995 2.212 3.995 4.726 0 2.707-2.127 4.189-4.983 4.189-2.792 0-4.597-1.332-5.477-3.072z"/>
    </symbol>
    <symbol id="facebook" viewBox="0 0 32 32">
      <path d="M7.08039 0.0601126C7.29039 0.0601126 7.50039 0.0601126 7.92039 0.0601126V3.21011C7.71039 3.21011 7.29039 3.21011 6.87039 3.21011C6.45039 3.21011 6.0304 3.21011 5.82039 3.42011C5.61039 3.63011 5.61038 3.84011 5.61038 4.33011C5.61038 4.75011 5.61038 5.03011 5.61038 5.45011H7.92039V8.11011H5.61038V19.6601H2.0404V8.04011H0.150391V5.38011H2.0404V4.47011C2.0404 2.93011 2.25039 1.81011 2.67039 1.32011C3.30039 0.410112 4.56039 -0.0098877 6.45039 -0.0098877C6.66039 0.0601123 6.87039 0.0601126 7.08039 0.0601126Z"/>
    </symbol>
    <symbol id="instagram" viewBox="0 0 32 32">
      <path d="M23.1277 7.41152C23.114 6.47146 22.9398 5.53885 22.6065 4.65964C22.0231 3.15827 20.8352 1.97109 19.3313 1.38991C18.4618 1.06332 17.5426 0.888218 16.6122 0.868349C15.4155 0.814951 15.0361 0.800049 11.9986 0.800049C8.96098 0.800049 8.57164 0.800049 7.38372 0.868349C6.45454 0.888218 5.5353 1.06332 4.66582 1.38991C3.16196 1.97109 1.97279 3.15827 1.39065 4.65964C1.06351 5.52767 0.886877 6.44538 0.869463 7.37302C0.815975 8.56889 0.799805 8.94765 0.799805 11.9802C0.799805 15.0127 0.799805 15.4002 0.869463 16.5873C0.888121 17.5162 1.06351 18.4327 1.39065 19.3032C1.97404 20.8033 3.16195 21.9905 4.66706 22.5717C5.53281 22.9095 6.45205 23.1007 7.38497 23.1305C8.58284 23.1839 8.96222 23.2001 11.9998 23.2001C15.0374 23.2001 15.4267 23.2001 16.6146 23.1305C17.5438 23.1119 18.4631 22.9368 19.3338 22.6102C20.8377 22.0278 22.0256 20.8406 22.609 19.3405C22.9361 18.4712 23.1115 17.5547 23.1301 16.6246C23.1836 15.43 23.1998 15.0512 23.1998 12.0174C23.1973 8.98491 23.1973 8.59994 23.1277 7.41152ZM11.9911 17.7149C8.8142 17.7149 6.24059 15.1456 6.24059 11.974C6.24059 8.80236 8.8142 6.23302 11.9911 6.23302C15.1655 6.23302 17.7416 8.80236 17.7416 11.974C17.7416 15.1456 15.1655 17.7149 11.9911 17.7149ZM17.9705 7.35936C17.2279 7.35936 16.6296 6.7608 16.6296 6.02067C16.6296 5.28055 17.2279 4.68199 17.9705 4.68199C18.7106 4.68199 19.3102 5.28055 19.3102 6.02067C19.3102 6.7608 18.7106 7.35936 17.9705 7.35936Z"/>
    </symbol>
    <symbol id="youtube" viewBox="0 0 32 32">
      <path fill-rule="evenodd" clip-rule="evenodd" d="M20.2104 0.249863C19.0203 0.179863 16.5703 0.109863 12.8604 0.109863H12.3703C8.80034 0.109863 6.42038 0.179863 5.23038 0.319863C3.62038 0.459863 2.50034 0.879863 1.87034 1.43986C1.31034 1.92986 0.89036 2.83986 0.75036 4.02986C0.68036 4.79986 0.610352 6.40986 0.610352 8.85986V9.20986C0.610352 11.5199 0.680343 13.1299 0.820343 13.8999C1.03034 15.0199 1.38038 15.8599 2.08038 16.3499C2.78038 16.9099 3.97036 17.2599 5.65036 17.3999C6.84036 17.4699 9.29036 17.5399 13.0004 17.5399H13.4904C17.0604 17.5399 19.4404 17.4699 20.6304 17.3299C22.2404 17.1899 23.3604 16.7699 23.9904 16.2099C24.5504 15.7199 24.9703 14.8099 25.1103 13.6199C25.1803 12.8499 25.2504 11.2399 25.2504 8.78986V8.43986C25.2504 6.12986 25.1804 4.51986 25.0404 3.74986C24.8304 2.62986 24.4804 1.78986 23.7804 1.29986C23.0804 0.739863 21.8904 0.389863 20.2104 0.249863ZM17.4804 8.85986L9.78038 13.4799V4.23986L17.4804 8.85986Z"/>
    </symbol>
  </defs>
</svg>
